<svg width="160" height="60" viewBox="0 0 160 60" fill="none" xmlns="http://www.w3.org/2000/svg">
    <defs><style>.cls-1{fill:#cc9966;}</style></defs>
    <polygon class="cls-1" points="69.75 9.7 65.53 9.7 69.75 0 60.27 0 55.31 11.39 59.53 11.39 55.31 21.09 58.09 21.09 58.09 39.68 66.88 39.68 66.88 19.57 65.45 19.57 69.75 9.7"/>
    <polygon class="cls-1" points="69.4 39.68 75.37 39.68 77.02 28.11 71.05 28.11 69.4 39.68"/>
    <polygon class="cls-1" points="97.07 28.11 98.72 39.68 104.69 39.68 103.04 28.11 97.07 28.11"/>
    <rect class="cls-1" x="70.45" y="22.48" width="33.37" height="4.16"/><path class="cls-1" d="M82.74,8.42H71V20.9H99.29a4,4,0,0,0,3.95-4V8.42H91.86V6.84h12V2.68h-12V0H82.74V2.68H70.45V6.84H82.74Zm-1.36,8.32H78.61V12.58h2.77Zm7.14,0H85.75V12.58h2.77Zm4.37-4.16h2.77v4.16H92.89Z"/>
    <path class="cls-1" d="M86.35,28.11H78.73v7.6a4,4,0,0,0,4,4H94.94l2-4.38H86.35Z"/>
    <polygon class="cls-1" points="89.22 34.04 95.19 34.04 94.34 28.11 88.37 28.11 89.22 34.04"/>
    <path class="cls-1" d="M138.27,39.68h17.78a4,4,0,0,0,3.95-4V2.23H138.27Zm8.85-33.07H151v28.6h-3.87Z"/>
    <polygon class="cls-1" points="110.62 7.08 119.1 6.42 119.1 10.65 110.62 10.65 110.62 15.1 119.1 15.1 119.1 39.68 126.83 39.68 126.83 15.1 135.31 15.1 135.31 10.65 126.83 10.65 126.83 5.81 135.31 5.15 135.31 0 110.62 1.92 110.62 7.08"/>
    <polygon class="cls-1" points="110.62 39.68 115.74 39.68 117.68 17.46 112.56 17.46 110.62 39.68"/>
    <polygon class="cls-1" points="128.24 17.46 130.19 39.68 135.31 39.68 133.37 17.46 128.24 17.46"/>
    <path class="cls-1" d="M26.76,0H18.67V8.68H0v4.65H17.59L0,39.68H11.92L24.34,21,37.68,39.68h11.7L34,17.61a4,4,0,0,0-3.24-1.68h-2.9l1.8-2.6H49.38V8.68H30.71V4A4,4,0,0,0,26.76,0Z"/><path class="cls-1" d="M3.82,60H0V50.19H3.82A4.89,4.89,0,0,1,9,55.07v0A4.9,4.9,0,0,1,3.82,60Zm3-4.9a2.82,2.82,0,0,0-3-3H2.16v5.91H3.82a2.8,2.8,0,0,0,3-2.93Z"/>
    <path class="cls-1" d="M26.34,60l-.9-2.2H21.3L20.4,60H18.2l4.2-9.88h2L28.59,60Zm-3-7.28-1.3,3.18h2.6Z"/>
    <path class="cls-1" d="M42.72,60H38.89V50.19h3.83a4.89,4.89,0,0,1,5.21,4.88v0A4.91,4.91,0,0,1,42.72,60Zm3-4.9a2.82,2.82,0,0,0-3-3H41.05v5.91h1.67a2.79,2.79,0,0,0,3-2.93Z"/>
    <path class="cls-1" d="M58.63,60V50.19H66v1.92H60.78v2H65.4V56H60.78v2.06H66.1V60Z"/>
    <path class="cls-1" d="M82.94,60V56.06H79V60H76.81V50.19H79v3.89h4V50.19H85.1V60Z"/>
    <path class="cls-1" d="M96.24,60V50.19h7.39v1.92H98.38v2H103V56H98.38v2.06h5.32V60Z"/>
    <path class="cls-1" d="M118.85,52.18V60h-2.16V52.18h-3v-2h8.12v2Z"/>
    <path class="cls-1" d="M132.27,60V50.19h7.4v1.92h-5.25v2H139V56h-4.62v2.06h5.32V60Z"/>
    <path class="cls-1" d="M157.75,60l-.9-2.2H152.7l-.89,2.2h-2.2l4.2-9.88h2L160,60Zm-3-7.28-1.31,3.18h2.61Z"/>
</svg>